<svg xmlns="http://www.w3.org/2000/svg" xmlns:xlink="http://www.w3.org/1999/xlink" width="537" height="510" viewBox="0 0 537 510" style="overflow:hidden;display:block;width:537px;height:510px"><defs><path id="ygc265_0" fill="none" stroke="#000" stroke-linecap="butt" stroke-linejoin="miter" stroke-miterlimit="10" stroke-opacity="1" stroke-width="1" d="M 5,-5 L 0,0 L 5,5"/></defs><g style="pointer-events:visiblePainted" image-rendering="auto" shape-rendering="auto" transform="translate(156.92567760386044 20.50618007381408)"><g><path fill="none" stroke="#000" stroke-linecap="butt" stroke-linejoin="miter" stroke-miterlimit="10" stroke-opacity="1" stroke-width=".75" d="M 86.98756170888696,61.71527054346981 L 23.15804408404972,102.76215598924884"/><use transform="matrix(0.841097 -0.540885 0.540885 0.841097 23.158 102.762)" xlink:href="#ygc265_0" style="pointer-events:none"/></g><g><path fill="none" stroke="#000" stroke-linecap="butt" stroke-linejoin="miter" stroke-miterlimit="10" stroke-opacity="1" stroke-width=".75" d="M 22.316947280923344,103.30304060519813 L 86.14646490576058,62.25615515941911"/><use transform="matrix(-0.841097 0.540885 -0.540885 -0.841097 86.1465 62.2562)" xlink:href="#ygc265_0" style="pointer-events:none"/></g><g><path fill="none" stroke="#000" stroke-linecap="butt" stroke-linejoin="miter" stroke-miterlimit="10" stroke-opacity="1" stroke-width=".75" d="M 128.1064511553787,61.71527054346981 L 168.87284849501148,102.59495338143181"/><use transform="matrix(-0.706125 -0.708087 0.708087 -0.706125 168.873 102.595)" xlink:href="#ygc265_0" style="pointer-events:none"/></g><g><path fill="none" stroke="#000" stroke-linecap="butt" stroke-linejoin="miter" stroke-miterlimit="10" stroke-opacity="1" stroke-width=".75" d="M 169.57897347229164,103.30304060519813 L 128.81257613265885,62.42335776723614"/><use transform="matrix(0.706125 0.708087 -0.708087 0.706125 128.813 62.4234)" xlink:href="#ygc265_0" style="pointer-events:none"/></g><g><path fill="none" stroke="#000" stroke-linecap="butt" stroke-linejoin="miter" stroke-miterlimit="10" stroke-opacity="1" stroke-width=".75" d="M 170.5665198328339,135.52449122248203 L 124.910417877685,184.3059553399262"/><use transform="matrix(0.683331 -0.730108 0.730108 0.683331 124.91 184.306)" xlink:href="#ygc265_0" style="pointer-events:none"/></g><g><path fill="none" stroke="#000" stroke-linecap="butt" stroke-linejoin="miter" stroke-miterlimit="10" stroke-opacity="1" stroke-width=".75" d="M 253.33624708235868,185.32547302751453 L 202.90719756391522,136.2221180119001"/><use transform="matrix(0.716461 0.697627 -0.697627 0.716461 202.907 136.222)" xlink:href="#ygc265_0" style="pointer-events:none"/></g><g><path fill="none" stroke="#000" stroke-linecap="butt" stroke-linejoin="miter" stroke-miterlimit="10" stroke-opacity="1" stroke-width=".75" d="M 112.04037177885584,213.05701303154947 L 112.04037177885584,254.0731738683125"/><use transform="matrix(0 -1 1 0 112.04 254.073)" xlink:href="#ygc265_0" style="pointer-events:none"/></g><g><path fill="none" stroke="#000" stroke-linecap="butt" stroke-linejoin="miter" stroke-miterlimit="10" stroke-opacity="1" stroke-width=".75" d="M 112.04037177885584,287.2946244855964 L 112.04037177885584,306.29462448559667"/><use transform="matrix(0 -1 1 0 112.04 306.295)" xlink:href="#ygc265_0" style="pointer-events:none"/></g><g><path fill="none" stroke="#000" stroke-linecap="butt" stroke-linejoin="miter" stroke-miterlimit="10" stroke-opacity="1" stroke-width=".75" d="M 112.04037177885584,339.51607510288056 L 112.04037177885584,358.5160751028805"/><use transform="matrix(0 -1 1 0 112.04 358.516)" xlink:href="#ygc265_0" style="pointer-events:none"/></g><g><path fill="none" stroke="#000" stroke-linecap="butt" stroke-linejoin="miter" stroke-miterlimit="10" stroke-opacity="1" stroke-width=".75" d="M 266.4115137541647,359.5160751028804 L 266.4115137541647,340.51607510288045"/><use transform="matrix(0 1 -1 0 266.411 340.516)" xlink:href="#ygc265_0" style="pointer-events:none"/></g><g><path fill="none" stroke="#000" stroke-linecap="butt" stroke-linejoin="miter" stroke-miterlimit="10" stroke-opacity="1" stroke-width=".75" d="M 266.4115137541647,307.29462448559656 L 266.4115137541647,288.2946244855963"/><use transform="matrix(0 1 -1 0 266.411 288.295)" xlink:href="#ygc265_0" style="pointer-events:none"/></g><g><path fill="none" stroke="#000" stroke-linecap="butt" stroke-linejoin="miter" stroke-miterlimit="10" stroke-opacity="1" stroke-width=".75" d="M 266.4115137541647,255.07317386831238 L 266.4115137541647,214.05701303154947"/><use transform="matrix(0 1 -1 0 266.411 214.057)" xlink:href="#ygc265_0" style="pointer-events:none"/></g><g><path fill="none" stroke="#000" stroke-linecap="butt" stroke-linejoin="miter" stroke-miterlimit="10" stroke-opacity="1" stroke-width=".75" d="M -42.33077019645299,287.2946244855965 L -42.33077019645299,306.29462448559656"/><use transform="matrix(0 -1 1 0 -42.3308 306.295)" xlink:href="#ygc265_0" style="pointer-events:none"/></g><g><path fill="none" stroke="#000" stroke-linecap="butt" stroke-linejoin="miter" stroke-miterlimit="10" stroke-opacity="1" stroke-width=".75" d="M -42.33077019645299,307.29462448559656 L -42.33077019645299,288.2946244855965"/><use transform="matrix(0 1 -1 0 -42.3308 288.295)" xlink:href="#ygc265_0" style="pointer-events:none"/></g><g><path fill="none" stroke="#000" stroke-linecap="butt" stroke-linejoin="miter" stroke-miterlimit="10" stroke-opacity="1" stroke-width=".75" d="M -42.33077019645299,339.51607510288045 L -42.33077019645299,358.5160751028804"/><use transform="matrix(0 -1 1 0 -42.3308 358.516)" xlink:href="#ygc265_0" style="pointer-events:none"/></g><g><path fill="none" stroke="#000" stroke-linecap="butt" stroke-linejoin="miter" stroke-miterlimit="10" stroke-opacity="1" stroke-width=".75" d="M -42.33077019645299,359.5160751028804 L -42.33077019645299,340.51607510288045"/><use transform="matrix(0 1 -1 0 -42.3308 340.516)" xlink:href="#ygc265_0" style="pointer-events:none"/></g><g><path fill="none" stroke="#000" stroke-linecap="butt" stroke-linejoin="miter" stroke-miterlimit="10" stroke-opacity="1" stroke-width=".75" d="M -18.95855705056482,135.52449122248203 L -68.3330646995495,184.55821627203107"/><use transform="matrix(0.709551 -0.704654 0.704654 0.709551 -68.3331 184.558)" xlink:href="#ygc265_0" style="pointer-events:none"/></g><g><path fill="none" stroke="#000" stroke-linecap="butt" stroke-linejoin="miter" stroke-miterlimit="10" stroke-opacity="1" stroke-width=".75" d="M -74.23634519262218,212.2582568931679 L -51.53013973700557,254.19380390839885"/><use transform="matrix(-0.476139 -0.87937 0.87937 -0.476139 -51.5301 254.194)" xlink:href="#ygc265_0" style="pointer-events:none"/></g><g><path fill="none" stroke="#000" stroke-linecap="butt" stroke-linejoin="miter" stroke-miterlimit="10" stroke-opacity="1" stroke-width=".75" d="M -33.60753978850903,255.0731738683126 L -10.901334332892377,213.13762685308149"/><use transform="matrix(-0.476139 0.87937 -0.87937 -0.476139 -10.9013 213.138)" xlink:href="#ygc265_0" style="pointer-events:none"/></g><g><path fill="none" stroke="#000" stroke-linecap="butt" stroke-linejoin="miter" stroke-miterlimit="10" stroke-opacity="1" stroke-width=".75" d="M -2.735862789045541,183.05701303154936 L -2.735862789045541,136.52449122248203"/><use transform="matrix(0 1 -1 0 -2.73586 136.524)" xlink:href="#ygc265_0" style="pointer-events:none"/></g><g><path fill="#F6F8FA" fill-opacity="1" stroke="#000" stroke-linecap="butt" stroke-linejoin="miter" stroke-miterlimit="10" stroke-opacity="1" stroke-width="1" d="M -86.76937402018405,307.29462448559656 L 2.107833627278069,307.29462448559656 L 2.107833627278069,339.51607510288045 L -86.76937402018405,339.51607510288045 Z"/></g><g><path fill="#F6F8FA" fill-opacity="1" stroke="#000" stroke-linecap="butt" stroke-linejoin="miter" stroke-miterlimit="10" stroke-opacity="1" stroke-width="1" d="M -86.76937402018405,255.0731738683126 L 2.107833627278069,255.0731738683126 L 2.107833627278069,287.2946244855965 L -86.76937402018405,287.2946244855965 Z"/></g><g><path fill="#F6F8FA" fill-opacity="1" stroke="#000" stroke-linecap="butt" stroke-linejoin="miter" stroke-miterlimit="10" stroke-opacity="1" stroke-width="1" d="M -86.76937402018405,359.5160751028804 L 2.107833627278069,359.5160751028804 L 2.107833627278069,391.7375257201643 L -86.76937402018405,391.7375257201643 Z"/></g><g><path fill="#F6F8FA" fill-opacity="1" stroke="#000" stroke-linecap="butt" stroke-linejoin="miter" stroke-miterlimit="10" stroke-opacity="1" stroke-width="1" d="M -47.1744666127766,103.30304060519813 L 41.702741034685516,103.30304060519813 L 41.702741034685516,135.52449122248203 L -47.1744666127766,135.52449122248203 Z"/></g><g><path fill="#F6F8FA" fill-opacity="1" stroke="#000" stroke-linecap="butt" stroke-linejoin="miter" stroke-miterlimit="10" stroke-opacity="1" stroke-width="1" d="M 141.20644902508343,103.30304060519813 L 230.08365667254554,103.30304060519813 L 230.08365667254554,135.52449122248203 L 141.20644902508343,135.52449122248203 Z"/></g><g><path fill="#F6F8FA" fill-opacity="1" stroke="#000" stroke-linecap="butt" stroke-linejoin="miter" stroke-miterlimit="10" stroke-opacity="1" stroke-width="1" d="M 112.04037177885584,213.05701303154947 C 98.23537177885584,213.05701303154947 87.04037177885584,206.34001303154946 87.04037177885584,198.05701303154947 C 87.04037177885584,189.7740130315495 98.23537177885584,183.05701303154947 112.04037177885584,183.05701303154947 C 125.84537177885585,183.05701303154947 137.04037177885584,189.7740130315495 137.04037177885584,198.05701303154947 C 137.04037177885584,206.34001303154946 125.84537177885585,213.05701303154947 112.04037177885584,213.05701303154947 Z"/></g><g><path fill="#F6F8FA" fill-opacity="1" stroke="#000" stroke-linecap="butt" stroke-linejoin="miter" stroke-miterlimit="10" stroke-opacity="1" stroke-width="1" d="M 266.4115137541647,213.05701303154947 C 252.60651375416467,213.05701303154947 241.41151375416467,206.34001303154946 241.41151375416467,198.05701303154947 C 241.41151375416467,189.7740130315495 252.60651375416467,183.05701303154947 266.4115137541647,183.05701303154947 C 280.2165137541647,183.05701303154947 291.4115137541647,189.7740130315495 291.4115137541647,198.05701303154947 C 291.4115137541647,206.34001303154946 280.2165137541647,213.05701303154947 266.4115137541647,213.05701303154947 Z"/></g><g><path fill="#F6F8FA" fill-opacity="1" stroke="#000" stroke-linecap="butt" stroke-linejoin="miter" stroke-miterlimit="10" stroke-opacity="1" stroke-width="1" d="M 67.60176795512479,29.49381992618592 L 156.4789756025869,29.49381992618592 L 156.4789756025869,61.71527054346981 L 67.60176795512479,61.71527054346981 Z"/></g><rect width="129.19" height="179.84" x="-106.926" y="260.59" fill="#FFF" fill-opacity="0" stroke="#000" stroke-dasharray="2 2 .01 2" stroke-dashoffset="1" stroke-linecap="round" stroke-linejoin="miter" stroke-miterlimit="10" stroke-opacity="1" stroke-width="1" rx="3" ry="3"/><g><path fill="#F6F8FA" fill-opacity="1" stroke="#000" stroke-linecap="butt" stroke-linejoin="miter" stroke-miterlimit="10" stroke-opacity="1" stroke-width="1" d="M 67.60176795512479,307.29462448559667 L 156.4789756025869,307.29462448559667 L 156.4789756025869,339.51607510288056 L 67.60176795512479,339.51607510288056 Z"/></g><g><path fill="#F6F8FA" fill-opacity="1" stroke="#000" stroke-linecap="butt" stroke-linejoin="miter" stroke-miterlimit="10" stroke-opacity="1" stroke-width="1" d="M 67.60176795512479,255.0731738683125 L 156.4789756025869,255.0731738683125 L 156.4789756025869,287.2946244855964 L 67.60176795512479,287.2946244855964 Z"/></g><g><path fill="#F6F8FA" fill-opacity="1" stroke="#000" stroke-linecap="butt" stroke-linejoin="miter" stroke-miterlimit="10" stroke-opacity="1" stroke-width="1" d="M 67.60176795512479,359.5160751028805 L 156.4789756025869,359.5160751028805 L 156.4789756025869,391.7375257201644 L 67.60176795512479,391.7375257201644 Z"/></g><rect width="129.19" height="179.84" x="47.446" y="260.59" fill="#FFF" fill-opacity="0" stroke="#000" stroke-dasharray="2 2 .01 2" stroke-dashoffset="1" stroke-linecap="round" stroke-linejoin="miter" stroke-miterlimit="10" stroke-opacity="1" stroke-width="1" rx="3" ry="3"/><g><path fill="#F6F8FA" fill-opacity="1" stroke="#000" stroke-linecap="butt" stroke-linejoin="miter" stroke-miterlimit="10" stroke-opacity="1" stroke-width="1" d="M 221.97290993043362,307.29462448559656 L 310.85011757789573,307.29462448559656 L 310.85011757789573,339.51607510288045 L 221.97290993043362,339.51607510288045 Z"/></g><g><path fill="#F6F8FA" fill-opacity="1" stroke="#000" stroke-linecap="butt" stroke-linejoin="miter" stroke-miterlimit="10" stroke-opacity="1" stroke-width="1" d="M 221.97290993043362,255.07317386831238 L 310.85011757789573,255.07317386831238 L 310.85011757789573,287.2946244855963 L 221.97290993043362,287.2946244855963 Z"/></g><g><path fill="#F6F8FA" fill-opacity="1" stroke="#000" stroke-linecap="butt" stroke-linejoin="miter" stroke-miterlimit="10" stroke-opacity="1" stroke-width="1" d="M 221.97290993043362,359.5160751028804 L 310.85011757789573,359.5160751028804 L 310.85011757789573,391.7375257201643 L 221.97290993043362,391.7375257201643 Z"/></g><rect width="129.19" height="179.84" x="201.817" y="259.596" fill="#FFF" fill-opacity="0" stroke="#000" stroke-dasharray="2 2 .01 2" stroke-dashoffset="1" stroke-linecap="round" stroke-linejoin="miter" stroke-miterlimit="10" stroke-opacity="1" stroke-width="1" rx="3" ry="3"/><g><path fill="#F6F8FA" fill-opacity="1" stroke="#000" stroke-linecap="butt" stroke-linejoin="miter" stroke-miterlimit="10" stroke-opacity="1" stroke-width="1" d="M -81.92567760386044,213.05701303154953 C -95.73067760386044,213.05701303154953 -106.92567760386044,206.34001303154952 -106.92567760386044,198.05701303154953 C -106.92567760386044,189.77401303154954 -95.73067760386044,183.05701303154953 -81.92567760386044,183.05701303154953 C -68.12067760386043,183.05701303154953 -56.925677603860436,189.77401303154954 -56.925677603860436,198.05701303154953 C -56.925677603860436,206.34001303154952 -68.12067760386043,213.05701303154953 -81.92567760386044,213.05701303154953 Z"/></g><g><path fill="#F6F8FA" fill-opacity="1" stroke="#000" stroke-linecap="butt" stroke-linejoin="miter" stroke-miterlimit="10" stroke-opacity="1" stroke-width="1" d="M -2.735862789045541,213.05701303154936 C -16.54086278904554,213.05701303154936 -27.73586278904554,206.34001303154935 -27.73586278904554,198.05701303154936 C -27.73586278904554,189.77401303154937 -16.54086278904554,183.05701303154936 -2.735862789045541,183.05701303154936 C 11.069137210954459,183.05701303154936 22.26413721095446,189.77401303154937 22.26413721095446,198.05701303154936 C 22.26413721095446,206.34001303154935 11.069137210954459,213.05701303154936 -2.735862789045541,213.05701303154936 Z"/></g><g><text fill="#000" fill-opacity="1" font-family="Arial" font-size="12" font-style="normal" font-weight="normal" text-anchor="middle" transform="translate(-86.76937402018405 307.29462448559656) translate(44.43860382373106 9.110725308641946)"><tspan x="0" dy="1em">Encoder</tspan></text></g><g><text fill="#000" fill-opacity="1" font-family="Arial" font-size="12" font-style="normal" font-weight="normal" text-anchor="middle" transform="translate(-86.76937402018405 255.0731738683126) translate(44.43860382373106 9.110725308641946)"><tspan x="0" dy="1em">Async Server</tspan></text></g><g><text fill="#000" fill-opacity="1" font-family="Arial" font-size="12" font-style="normal" font-weight="normal" text-anchor="middle" transform="translate(-86.76937402018405 359.5160751028804) translate(44.43860382373106 9.110725308641946)"><tspan x="0" dy="1em">TCP Server</tspan></text></g><g><text fill="#000" fill-opacity="1" font-family="Arial" font-size="12" font-style="normal" font-weight="normal" text-anchor="middle" transform="translate(-47.1744666127766 103.30304060519813) translate(44.43860382373106 9.110725308641946)"><tspan x="0" dy="1em">World Server</tspan></text></g><g><text fill="#000" fill-opacity="1" font-family="Arial" font-size="12" font-style="normal" font-weight="normal" text-anchor="middle" transform="translate(141.20644902508343 103.30304060519813) translate(44.43860382373106 9.110725308641946)"><tspan x="0" dy="1em">Agent Server</tspan></text></g><g><text fill="#000" fill-opacity="1" font-family="Arial" font-size="10" font-style="normal" font-weight="normal" text-anchor="middle" transform="translate(87.04037177885584 183.05701303154947) translate(25 9.5)"><tspan x="0" dy="1em">Buffer</tspan></text></g><g><text fill="#000" fill-opacity="1" font-family="Arial" font-size="10" font-style="normal" font-weight="normal" text-anchor="middle" transform="translate(241.41151375416467 183.05701303154947) translate(25 9.5)"><tspan x="0" dy="1em">Buffer</tspan></text></g><g><text fill="#000" fill-opacity="1" font-family="Arial" font-size="12" font-style="normal" font-weight="normal" text-anchor="middle" transform="translate(67.60176795512479 29.49381992618592) translate(44.43860382373106 9.110725308641946)"><tspan x="0" dy="1em">C API</tspan></text></g><g><text fill="#000" fill-opacity="1" font-family="Arial" font-size="10" font-style="normal" font-weight="normal" text-anchor="middle" transform="translate(-72.60966766935094 421.47360068423836) translate(30.278897472897953 0)"><tspan x="0" dy="1em">World Thread</tspan></text></g><g><text fill="#000" fill-opacity="1" font-family="Arial" font-size="10" font-style="normal" font-weight="normal" text-anchor="middle" transform="translate(-66.85449845932725 395.5628033591353) translate(24.523728262874258 0)"><tspan x="0" dy="1em">(port 2000)</tspan></text></g><g><text fill="#000" fill-opacity="1" font-family="Arial" font-size="12" font-style="normal" font-weight="normal" text-anchor="middle" transform="translate(67.60176795512479 307.29462448559667) translate(44.43860382373106 9.110725308641946)"><tspan x="0" dy="1em">Encoder</tspan></text></g><g><text fill="#000" fill-opacity="1" font-family="Arial" font-size="12" font-style="normal" font-weight="normal" text-anchor="middle" transform="translate(67.60176795512479 255.0731738683125) translate(44.43860382373106 9.110725308641946)"><tspan x="0" dy="1em">Async Server</tspan></text></g><g><text fill="#000" fill-opacity="1" font-family="Arial" font-size="12" font-style="normal" font-weight="normal" text-anchor="middle" transform="translate(67.60176795512479 359.5160751028805) translate(44.43860382373106 9.110725308641946)"><tspan x="0" dy="1em">TCP Server</tspan></text></g><g><text fill="#000" fill-opacity="1" font-family="Arial" font-size="10" font-style="normal" font-weight="normal" text-anchor="middle" transform="translate(61.60491825519859 421.9558537706581) translate(50.43545352365725 0)"><tspan x="0" dy="1em">Measurements Thread</tspan></text></g><g><text fill="#000" fill-opacity="1" font-family="Arial" font-size="10" font-style="normal" font-weight="normal" text-anchor="middle" transform="translate(87.51664351598158 394.5982971862958) translate(24.523728262874258 0)"><tspan x="0" dy="1em">(port 2001)</tspan></text></g><g><text fill="#000" fill-opacity="1" font-family="Arial" font-size="12" font-style="normal" font-weight="normal" text-anchor="middle" transform="translate(221.97290993043362 307.29462448559656) translate(44.43860382373106 9.110725308641946)"><tspan x="0" dy="1em">Encoder</tspan></text></g><g><text fill="#000" fill-opacity="1" font-family="Arial" font-size="12" font-style="normal" font-weight="normal" text-anchor="middle" transform="translate(221.97290993043362 255.07317386831238) translate(44.43860382373106 9.110725308641946)"><tspan x="0" dy="1em">Async Server</tspan></text></g><g><text fill="#000" fill-opacity="1" font-family="Arial" font-size="12" font-style="normal" font-weight="normal" text-anchor="middle" transform="translate(221.97290993043362 359.5160751028804) translate(44.43860382373106 9.110725308641946)"><tspan x="0" dy="1em">TCP Server</tspan></text></g><g><text fill="#000" fill-opacity="1" font-family="Arial" font-size="10" font-style="normal" font-weight="normal" text-anchor="middle" transform="translate(232.97229154705124 420.4801949588476) translate(33.43922220711343 0)"><tspan x="0" dy="1em">Control Thread</tspan></text></g><g><text fill="#000" fill-opacity="1" font-family="Arial" font-size="10" font-style="normal" font-weight="normal" text-anchor="middle" transform="translate(241.8877854912904 394.0871445473248) translate(24.523728262874258 0)"><tspan x="0" dy="1em">(port 2002)</tspan></text></g><g><text fill="#000" fill-opacity="1" font-family="Arial" font-size="10" font-style="normal" font-weight="normal" text-anchor="middle" transform="translate(-106.92567760386044 183.05701303154953) translate(25 9.5)"><tspan x="0" dy="1em">Message</tspan></text></g><g><text fill="#000" fill-opacity="1" font-family="Arial" font-size="10" font-style="normal" font-weight="normal" text-anchor="middle" transform="translate(-27.73586278904554 183.05701303154936) translate(25 9.5)"><tspan x="0" dy="1em">Message</tspan></text></g></g></svg>